<svg width="11" height="4" viewBox="0 0 11 4" fill="none" xmlns="http://www.w3.org/2000/svg">
<path d="M5.742 2.412C5.394 2.136 5.07 1.908 4.77 1.728C4.47 1.548 4.146 1.458 3.798 1.458C3.366 1.458 3.018 1.626 2.754 1.962C2.502 2.286 2.31 2.676 2.178 3.132L0.99 2.754C1.074 2.394 1.194 2.046 1.35 1.71C1.506 1.374 1.698 1.08 1.926 0.828C2.154 0.576 2.418 0.378 2.718 0.234C3.03 0.0779999 3.384 0 3.78 0C4.26 0 4.71 0.0959998 5.13 0.288C5.562 0.48 5.952 0.714 6.3 0.99C6.648 1.266 6.972 1.494 7.272 1.674C7.572 1.854 7.896 1.944 8.244 1.944C8.484 1.944 8.682 1.896 8.838 1.8C8.994 1.704 9.12 1.578 9.216 1.422C9.324 1.254 9.408 1.074 9.468 0.881999C9.54 0.677999 9.606 0.474 9.666 0.27L10.8 0.648C10.728 0.996 10.632 1.338 10.512 1.674C10.392 1.998 10.236 2.292 10.044 2.556C9.852 2.808 9.606 3.012 9.306 3.168C9.018 3.324 8.67 3.402 8.262 3.402C7.842 3.402 7.404 3.306 6.948 3.114C6.492 2.922 6.09 2.688 5.742 2.412Z" fill="#222222"/>
</svg>
