<svg width="24" height="24" viewBox="0 0 24 24" fill="none" xmlns="http://www.w3.org/2000/svg">
<path d="M8 3H20C20.2652 3 20.5196 3.10536 20.7071 3.29289C20.8946 3.48043 21 3.73478 21 4V20C21 20.2652 20.8946 20.5196 20.7071 20.7071C20.5196 20.8946 20.2652 21 20 21H8C7.73478 21 7.48043 20.8946 7.29289 20.7071C7.10536 20.5196 7 20.2652 7 20V17" stroke="black" stroke-width="1.5" stroke-linecap="round" stroke-linejoin="round"/>
<path d="M17 12V17V12ZM13 17V15V17ZM3 15L5.83 12.17L3 15ZM8 7C7.40666 7 6.82664 7.17595 6.33329 7.50559C5.83994 7.83524 5.45542 8.30377 5.22836 8.85195C5.0013 9.40013 4.94189 10.0033 5.05764 10.5853C5.1734 11.1672 5.45912 11.7018 5.87868 12.1213C6.29824 12.5409 6.83279 12.8266 7.41473 12.9424C7.99667 13.0581 8.59987 12.9987 9.14805 12.7716C9.69623 12.5446 10.1648 12.1601 10.4944 11.6667C10.8241 11.1734 11 10.5933 11 10C11 9.20435 10.6839 8.44129 10.1213 7.87868C9.55871 7.31607 8.79565 7 8 7Z" stroke="black" stroke-width="1.5" stroke-linecap="round" stroke-linejoin="round"/>
</svg>
