<svg width="16" height="18" viewBox="0 0 16 18" fill="none" xmlns="http://www.w3.org/2000/svg">
<path d="M3.83333 8.16663V4.83329C3.83333 3.72822 4.27232 2.66842 5.05372 1.88701C5.83512 1.10561 6.89493 0.666626 8 0.666626C9.10507 0.666626 10.1649 1.10561 10.9463 1.88701C11.7277 2.66842 12.1667 3.72822 12.1667 4.83329V8.16663M2.16667 8.16663H13.8333C14.7538 8.16663 15.5 8.91282 15.5 9.83329V15.6666C15.5 16.5871 14.7538 17.3333 13.8333 17.3333H2.16667C1.24619 17.3333 0.5 16.5871 0.5 15.6666V9.83329C0.5 8.91282 1.24619 8.16663 2.16667 8.16663Z" stroke="white" stroke-linecap="round" stroke-linejoin="round"/>
</svg>
