<svg width="42" height="30" viewBox="0 0 42 30" fill="none" xmlns="http://www.w3.org/2000/svg">
<path d="M41.3141 15.4027L40.9553 15.1696C39.7206 13.9302 37.9899 13.39 35.6894 13.5277C33.7688 13.6442 32.2492 14.4069 31.0884 15.1167C31.0884 15.0955 31.0884 15.0849 31.0884 15.0637C31.0884 14.4599 31.1518 13.8031 31.2256 13.1675C31.2889 12.5213 31.3628 11.8646 31.3628 11.2396C31.3628 10.604 31.2889 10.0002 31.0779 9.49168C31.0251 9.36456 30.8985 9.27981 30.7508 9.27981C30.1281 9.29041 28.9146 9.72473 28.6296 9.97896L28.4714 10.3285C28.4608 11.0171 28.3131 12.9451 28.1548 13.1781C28.1653 13.1675 28.0704 13.4112 28.0704 13.4112C27.8065 16.1548 27.8065 18.5807 28.0492 20.6569C28.0809 20.8688 28.4714 21.176 28.7774 21.2925C29.1151 21.4197 30.1704 21.1336 30.7824 20.9006C30.7719 20.9006 31.0146 20.8688 31.0146 20.8688C31.2045 20.8476 31.3206 20.6887 31.3101 20.4663L31.3206 19.873C31.7638 18.0828 33.5367 15.943 35.6367 15.6252C36.8291 15.4345 37.7683 15.7417 38.507 16.5574C38.602 16.7057 38.8236 17.9874 38.0427 19.4705C37.4623 20.5722 36.291 21.4938 34.7608 22.0658C33.3045 22.6167 31.7111 22.8391 29.7377 22.7756C29.6533 22.7226 27.891 21.5256 27.891 21.5256C26.3291 20.4239 24.3874 19.0468 22.6251 18.3794C22.3191 18.2629 21.7598 17.7968 21.4221 17.5213L21.2427 17.373C20.2296 16.5574 18.2879 15.265 16.7367 14.2269C16.7367 14.2269 16.0402 13.7502 15.903 13.6654C15.903 13.6018 15.903 13.4853 15.903 13.4853C15.9452 13.4324 16.9266 12.8497 16.9266 12.8497C18.2879 12.0446 18.9211 11.6527 19.0583 11.4514C19.0266 11.4832 19.2377 11.3455 19.2377 11.3455C19.2482 11.3349 22.6251 9.41752 22.6251 9.41752C25.8754 7.62727 29.5583 5.59337 31.4894 3.58065L31.5844 3.27345L31.6266 2.99802C31.7533 2.5637 31.7638 2.23531 31.6583 1.85396C31.6266 1.74802 31.5317 1.6209 31.3945 1.59972C29.8854 1.45141 27.9332 2.36243 26.1603 4.02557C25.7593 4.39633 25.4216 4.58701 25.0734 4.77769L24.799 4.92599C22.8467 6.03828 18.4357 8.78193 16.1352 10.265C16.2513 7.76498 16.7156 4.22684 17.2749 1.27133L17.2116 0.921751C17.201 0.911158 16.9688 0.476835 16.9688 0.476835L16.7894 0.159038L16.7367 0.148445C16.2724 -0.084606 15.903 0.0107331 15.6286 0.0742925L15.1643 0.243784L14.5628 0.466242C14.4467 0.487429 14.3518 0.561581 14.3095 0.6887C13.2121 3.35819 12.294 7.75439 12.0724 11.2713C9.86683 9.86244 7.83015 8.84549 6.83819 8.3582L6.80653 8.34761L6.69045 8.31583C6.33166 8.27345 5.88844 8.00862 5.47688 7.75439C5.42412 7.72261 4.63266 7.20354 4.63266 7.20354L3.35578 6.38786C3.36633 6.39845 3.01809 6.31371 3.01809 6.31371C2.46935 6.39845 1.41407 7.1082 1.09749 7.59549C1.06583 7.65905 1.04472 7.7332 1.04472 7.80735C1.04472 7.91328 1.07638 8.00862 1.10804 8.11456L1.1608 8.36879L1.22412 8.52769C1.83618 9.16329 3.38744 10.212 4.89648 11.0277L6.64824 11.9599L9.3392 13.4324C9.3392 13.443 9.79296 13.8031 9.79296 13.8031L10.1095 13.9832C10.1095 13.9832 10.1518 14.0044 10.1729 14.015C9.45528 14.5023 5.27638 17.3095 5.27638 17.3095L2.70151 19.0256C2.45879 19.1951 1.44573 19.6506 1.21357 19.7353C0.654271 19.9684 0.232161 20.318 0.0633166 20.6993L0 20.837L0.0738693 20.9324L0.274372 21.0807C0.263819 21.0807 0.538191 21.2502 0.538191 21.2502L0.823116 21.4408C0.833668 21.4408 1.08693 21.4832 1.08693 21.4832C1.5407 21.5044 2.20553 21.2396 3.46131 20.6887C4.61156 20.1802 7.73518 18.2841 9.07538 17.479L9.64523 17.14C9.87739 17.1612 10.1412 16.9599 10.3734 16.7798C10.6372 16.568 11.2281 16.2078 11.5764 16.0489C11.5869 16.0489 11.7874 15.9324 11.9774 15.8264C11.9774 15.89 11.9774 15.9747 11.9774 15.9747C12.0407 20.0743 12.2729 23.0616 12.7161 25.3603L12.7266 25.4027L12.7688 25.498C12.9905 25.8264 13.2437 26.7904 13.4653 27.6485L13.9719 29.3646C13.9824 29.3858 14.1196 29.5235 14.1196 29.5235C14.4151 29.7247 15.3015 30.0637 15.8925 29.9896L16.0402 29.9684L16.1352 29.7565C16.1879 29.5023 16.1985 29.2481 16.1985 28.9726C16.1985 28.6548 16.1774 28.3158 16.1457 27.8921L16.1035 27.2777C15.9136 24.4175 15.7342 20.2756 15.7342 17.5213C15.7342 17.4472 15.7342 17.373 15.7342 17.2989C16.2196 17.6061 18.3407 18.9408 18.3407 18.9408C21.9497 21.2925 27.4055 24.8413 30.698 25.7841C30.8668 25.837 31.0462 25.7947 31.1729 25.6781C31.1729 25.6675 31.6794 25.3497 31.6794 25.3497L31.7744 25.3074C31.9643 25.212 32.091 24.8942 32.1121 24.5553C34.8874 24.4175 38.7603 23.337 40.8392 20.7205C41.6412 19.7036 42 18.4641 42 17.4048C41.9894 16.568 41.7467 15.8158 41.3141 15.4027Z" fill="#FCAF17"/>
</svg>
