<svg width="183" height="30" viewBox="0 0 183 30" fill="none" xmlns="http://www.w3.org/2000/svg">
<path d="M41.2129 15.4027L40.855 15.1696C39.6233 13.9302 37.8969 13.39 35.6021 13.5277C33.6861 13.6442 32.1703 14.4069 31.0123 15.1167C31.0123 15.0955 31.0123 15.0849 31.0123 15.0637C31.0123 14.4599 31.0755 13.8031 31.1492 13.1675C31.2123 12.5213 31.286 11.8646 31.286 11.2396C31.286 10.604 31.2123 10.0002 31.0018 9.49168C30.9492 9.36456 30.8228 9.27981 30.6754 9.27981C30.0544 9.29041 28.8438 9.72473 28.5595 9.97896L28.4016 10.3285C28.3911 11.0171 28.2437 12.9451 28.0858 13.1781C28.0964 13.1675 28.0016 13.4112 28.0016 13.4112C27.7384 16.1548 27.7384 18.5807 27.9806 20.6569C28.0121 20.8688 28.4016 21.176 28.7069 21.2925C29.0438 21.4197 30.0965 21.1336 30.707 20.9006C30.6965 20.9006 30.9386 20.8688 30.9386 20.8688C31.1281 20.8476 31.2439 20.6887 31.2334 20.4663L31.2439 19.873C31.686 18.0828 33.4546 15.943 35.5494 15.6252C36.739 15.4345 37.6759 15.7417 38.4127 16.5574C38.5075 16.7057 38.7285 17.9874 37.9496 19.4705C37.3706 20.5722 36.2021 21.4938 34.6757 22.0658C33.223 22.6167 31.6334 22.8391 29.6649 22.7756C29.5807 22.7226 27.8227 21.5256 27.8227 21.5256C26.2647 20.4239 24.3277 19.0468 22.5697 18.3794C22.2644 18.2629 21.7065 17.7968 21.3696 17.5213L21.1907 17.373C20.1801 16.5574 18.2432 15.265 16.6957 14.2269C16.6957 14.2269 16.0009 13.7502 15.8641 13.6654C15.8641 13.6018 15.8641 13.4853 15.8641 13.4853C15.9062 13.4324 16.8852 12.8497 16.8852 12.8497C18.2432 12.0446 18.8748 11.6527 19.0116 11.4514C18.98 11.4832 19.1906 11.3455 19.1906 11.3455C19.2011 11.3349 22.5697 9.41752 22.5697 9.41752C25.812 7.62727 29.4859 5.59337 31.4123 3.58065L31.5071 3.27345L31.5492 2.99802C31.6755 2.5637 31.686 2.23531 31.5808 1.85396C31.5492 1.74802 31.4544 1.6209 31.3176 1.59972C29.8122 1.45141 27.8648 2.36243 26.0962 4.02557C25.6962 4.39633 25.3594 4.58701 25.012 4.77769L24.7383 4.92599C22.7908 6.03828 18.3905 8.78193 16.0957 10.265C16.2115 7.76498 16.6746 4.22684 17.2326 1.27133L17.1694 0.921751C17.1589 0.911158 16.9273 0.476835 16.9273 0.476835L16.7483 0.159038L16.6957 0.148445C16.2325 -0.084606 15.8641 0.0107331 15.5904 0.0742925L15.1272 0.243784L14.5272 0.466242C14.4114 0.487429 14.3166 0.561581 14.2745 0.6887C13.1797 3.35819 12.2639 7.75439 12.0428 11.2713C9.84267 9.86244 7.81098 8.84549 6.82145 8.3582L6.78986 8.34761L6.67407 8.31583C6.31615 8.27345 5.87402 8.00862 5.46347 7.75439C5.41084 7.72261 4.62132 7.20354 4.62132 7.20354L3.34756 6.38786C3.35809 6.39845 3.0107 6.31371 3.0107 6.31371C2.4633 6.39845 1.41061 7.1082 1.0948 7.59549C1.06322 7.65905 1.04217 7.7332 1.04217 7.80735C1.04217 7.91328 1.07375 8.00862 1.10533 8.11456L1.15796 8.36879L1.22112 8.52769C1.83168 9.16329 3.37914 10.212 4.88449 11.0277L6.63196 11.9599L9.31633 13.4324C9.31633 13.443 9.76898 13.8031 9.76898 13.8031L10.0848 13.9832C10.0848 13.9832 10.1269 14.0044 10.148 14.015C9.43212 14.5023 5.26346 17.3095 5.26346 17.3095L2.69489 19.0256C2.45277 19.1951 1.44219 19.6506 1.2106 19.7353C0.652669 19.9684 0.231592 20.318 0.0631615 20.6993L0 20.837L0.0736885 20.9324L0.2737 21.0807C0.263173 21.0807 0.536873 21.2502 0.536873 21.2502L0.8211 21.4408C0.831627 21.4408 1.08427 21.4832 1.08427 21.4832C1.53693 21.5044 2.20013 21.2396 3.45283 20.6887C4.60027 20.1802 7.71623 18.2841 9.05315 17.479L9.62161 17.14C9.8532 17.1612 10.1164 16.9599 10.348 16.7798C10.6111 16.568 11.2006 16.2078 11.548 16.0489C11.5586 16.0489 11.7586 15.9324 11.9481 15.8264C11.9481 15.89 11.9481 15.9747 11.9481 15.9747C12.0112 20.0743 12.2428 23.0616 12.6849 25.3603L12.6955 25.4027L12.7376 25.498C12.9586 25.8264 13.2113 26.7904 13.4324 27.6485L13.9376 29.3646C13.9482 29.3858 14.085 29.5235 14.085 29.5235C14.3798 29.7247 15.264 30.0637 15.8535 29.9896L16.0009 29.9684L16.0957 29.7565C16.1483 29.5023 16.1588 29.2481 16.1588 28.9726C16.1588 28.6548 16.1378 28.3158 16.1062 27.8921L16.0641 27.2777C15.8746 24.4175 15.6956 20.2756 15.6956 17.5213C15.6956 17.4472 15.6956 17.373 15.6956 17.2989C16.1799 17.6061 18.2958 18.9408 18.2958 18.9408C21.896 21.2925 27.3384 24.8413 30.6228 25.7841C30.7912 25.837 30.9702 25.7947 31.0965 25.6781C31.0965 25.6675 31.6018 25.3497 31.6018 25.3497L31.6966 25.3074C31.886 25.212 32.0124 24.8942 32.0334 24.5553C34.802 24.4175 38.6654 23.337 40.7392 20.7205C41.5392 19.7036 41.8971 18.4641 41.8971 17.4048C41.8866 16.568 41.6445 15.8158 41.2129 15.4027Z" fill="#FCAF17"/>
<path d="M113.322 22.267H101.237V17.9768H113.322V22.267ZM115.859 15.7522H98.7002V24.5022H115.859V15.7522Z" fill="white"/>
<path d="M115.754 11.0276V4.20557H98.8159V6.40896H113.196V11.0382H96.8789V13.2522H117.68V11.0276H115.754Z" fill="white"/>
<path d="M140.155 14.7353V12.5213H119.375V14.7353H124.133V17.14C122.28 17.9133 121.112 19.1633 121.112 20.9006C121.112 24.0362 124.986 25.6146 129.765 25.6146C134.544 25.6146 138.418 24.0362 138.418 20.9006C138.418 19.1845 137.26 17.9345 135.45 17.1612V14.7353H140.155ZM126.67 14.7353H132.892V16.4408C131.923 16.2713 130.86 16.1866 129.755 16.1866C128.67 16.1866 127.628 16.2713 126.67 16.4302V14.7353ZM135.734 20.9006C135.734 22.6379 133.049 23.4112 129.755 23.4112C126.449 23.4112 123.775 22.6379 123.775 20.9006C123.775 19.1845 126.449 18.39 129.755 18.39C133.049 18.39 135.734 19.1845 135.734 20.9006ZM129.765 11.5679C134.007 11.5679 137.45 10.1167 137.45 7.22472C137.45 4.32218 134.007 2.89209 129.765 2.89209C125.523 2.89209 122.08 4.32218 122.08 7.22472C122.08 10.1061 125.523 11.5679 129.765 11.5679ZM129.755 5.05311C132.523 5.05311 134.765 5.73108 134.765 7.22472C134.765 8.72896 132.513 9.40693 129.755 9.40693C126.986 9.40693 124.744 8.73955 124.744 7.22472C124.744 5.73108 126.986 5.05311 129.755 5.05311Z" fill="white"/>
<path d="M158.262 20.4875V4.56592H142.135V6.76931H155.704V20.4875H140.714V22.6909H160.168V20.4875H158.262Z" fill="white"/>
<path d="M162.22 13.9938V16.1866H171.42V17.998H174.01V16.1866H183V13.9938H162.22ZM178.768 18.6442H166.42V17.1505H163.925V24.4811H181.273V17.1505H178.768V18.6442ZM178.779 22.3095H166.42V20.7734H178.779V22.3095ZM181.168 10.7734H166.473V9.59757H181.116V4.22681H163.988V6.38783H178.631V7.51071H163.988V12.9344H181.168V10.7734Z" fill="white"/>
<path d="M73.3828 4.19507H83.3518C88.0995 4.19507 90.5733 5.77346 90.5733 9.24804C90.5733 11.7163 88.8679 13.4112 86.5836 13.8667V13.9514C89.8469 14.3434 91.3944 16.4938 91.3944 18.9303C91.3944 21.9811 89.1732 24.6188 83.6676 24.6188H73.3828V4.19507ZM76.6146 12.7968H83.1939C85.6361 12.7968 87.4468 11.8646 87.4468 9.69296C87.4468 7.79677 86.552 6.52558 82.8255 6.52558H76.6146V12.7968ZM76.6146 22.2883H82.9939C86.952 22.2883 88.0047 20.7311 88.0047 18.7502C88.0047 16.4091 86.3941 15.1061 82.8255 15.1061H76.6146V22.2883Z" fill="white"/>
<path d="M51.4346 4.19507H54.6769V13.3264L65.5828 4.19507H70.1725L58.6455 13.4112L71.1304 24.6082H66.5407L54.6769 13.6654V24.6082H51.4346V4.19507Z" fill="white"/>
</svg>
