<svg width="34" height="35" viewBox="0 0 34 35" fill="none" xmlns="http://www.w3.org/2000/svg">
<path fill-rule="evenodd" clip-rule="evenodd" d="M13.3808 27.6475L2.28596 33.1949C1.42641 33.6247 0.514541 32.7128 0.944319 31.8533L16.1056 1.53081C16.4741 0.793765 17.5259 0.793765 17.8944 1.53081L33.0557 31.8533C33.4855 32.7129 32.5736 33.6248 31.714 33.195L20.6229 27.6494L17.7335 34.3051C17.4548 34.9472 16.544 34.9469 16.2657 34.3046L13.3808 27.6475ZM16.3274 5.55934L4.07482 30.0644L13.126 25.5389L16.3274 5.55934ZM20.8796 25.5417L29.9252 30.0645L17.6718 5.55777L20.8796 25.5417ZM15.0152 26.3891L17.0009 13.9971L18.9899 26.3887L17.0007 30.9708L15.0152 26.3891Z" fill="white"/>
</svg>
