<?xml version="1.0" encoding="UTF-8"?>
<svg xmlns="http://www.w3.org/2000/svg" xmlns:xlink="http://www.w3.org/1999/xlink" width="55px" height="41px" viewBox="0 0 55 41" version="1.1">
<g id="surface1">
<path style=" stroke:none;fill-rule:evenodd;fill:rgb(0%,0%,0%);fill-opacity:1;" d="M 54.167969 33.6875 C 50.578125 36.726562 35.703125 38.535156 20.960938 37.828125 C 6.214844 37.113281 -2.820312 34.003906 0.769531 30.96875 C 4.359375 27.921875 19.234375 26.050781 33.972656 26.828125 C 48.714844 27.535156 57.757812 30.644531 54.167969 33.679688 Z M 30.769531 34.988281 C 35.378906 34.789062 38.78125 34.464844 40.511719 32.980469 C 42.238281 31.492188 37.816406 29.9375 30.644531 29.613281 C 23.460938 29.292969 16.28125 30.199219 14.488281 31.691406 C 12.6875 33.171875 17.113281 34.664062 24.292969 35.050781 C 26.472656 35.117188 28.71875 35.117188 30.769531 34.988281 Z M 30.769531 34.988281 "/>
<path style=" stroke:none;fill-rule:evenodd;fill:rgb(0%,0%,0%);fill-opacity:1;" d="M 34.359375 32.648438 C 33.402344 33.425781 29.613281 33.941406 25.835938 33.75 C 22.046875 33.554688 19.746094 32.777344 20.640625 32 C 21.535156 31.222656 25.386719 30.707031 29.164062 30.90625 C 32.945312 31.09375 35.316406 31.871094 34.359375 32.648438 Z M 28.332031 33.039062 C 29.195312 33.054688 30.046875 32.878906 30.832031 32.523438 C 31.277344 32.132812 30.0625 31.683594 28.269531 31.609375 C 26.472656 31.546875 24.617188 31.746094 24.167969 32.132812 C 23.722656 32.523438 24.804688 32.910156 26.667969 33.039062 Z M 28.332031 33.039062 "/>
<path style=" stroke:none;fill-rule:nonzero;fill:rgb(0%,0%,0%);fill-opacity:1;" d="M 33.777344 1.984375 L 27.625 32.324219 L 21.214844 1.984375 L 27.5 6.773438 Z M 33.777344 1.984375 "/>
</g>
</svg>
