<?xml version="1.0" encoding="UTF-8"?>
<svg id="_레이어_2" data-name="레이어 2" xmlns="http://www.w3.org/2000/svg" width="239.87" height="190.9" viewBox="0 0 239.87 190.9">
  <defs>
    <style>
      .cls-1 {
        fill: #fff;
      }

      .cls-2 {
        fill: #e02837;
      }
    </style>
  </defs>
  <g id="_레이어_1-2" data-name="레이어 1">
    <path class="cls-1" d="M0,94.51C0,40.75,38.47,0,85.92,0c12.09,0,20.19,5.11,34.01,5.11S141.86,0,153.95,0c47.45,0,85.92,40.75,85.92,94.51v1.89c0,53.76-38.47,94.51-85.92,94.51-12.08,0-20.19-5.11-34.01-5.11s-21.93,5.11-34.01,5.11C38.47,190.9,0,150.15,0,96.39v-1.89Z"/>
    <g>
      <path class="cls-2" d="M99.49,79.2h-7.2v-21.03c0-6.21-4.45-11.27-9.92-11.27h-5.6c-5.47,0-9.92,5.06-9.92,11.27v21.03h-7.2v-21.03c0-10.18,7.68-18.47,17.12-18.47h5.6c9.44,0,17.12,8.29,17.12,18.47v21.03Z"/>
      <path class="cls-2" d="M144.31,79.2h-7.2v-21.03c0-6.21-4.45-11.27-9.92-11.27h-5.6c-5.47,0-9.92,5.06-9.92,11.27v21.03h-7.2v-21.03c0-10.18,7.68-18.47,17.12-18.47h5.6c9.44,0,17.12,8.29,17.12,18.47v21.03Z"/>
      <path class="cls-2" d="M168.75,46.74c7.05,0,12.78,5.73,12.78,12.78s-5.73,12.78-12.78,12.78-12.78-5.73-12.78-12.78,5.74-12.78,12.78-12.78m0-7.38c-11.13,0-20.16,9.03-20.16,20.16s9.03,20.16,20.16,20.16,20.16-9.03,20.16-20.16-9.03-20.16-20.16-20.16h0Z"/>
      <rect class="cls-2" x="45.29" y="39.84" width="7.83" height="39.36"/>
    </g>
    <g>
      <path class="cls-2" d="M51.07,153.29c-16.1,0-29.2-13.1-29.2-29.2s13.1-29.19,29.2-29.19c9.34,0,18.19,4.53,23.67,12.11l-9.72,7.03c-3.23-4.47-8.44-7.14-13.94-7.14-9.48,0-17.2,7.71-17.2,17.19s7.71,17.2,17.2,17.2c5.29,0,10.21-2.39,13.5-6.55l9.42,7.44c-5.58,7.06-13.93,11.12-22.92,11.12Z"/>
      <path class="cls-2" d="M185.7,95.58h-.59c-4.38,0-10.47,1.98-14.96,7.88-4.49-5.9-10.58-7.88-14.96-7.88h-.59c-7.78,0-20.96,6.24-20.96,29.62v26.98h12v-26.98c0-17.12,8.04-17.62,8.96-17.62h.59c.92,0,8.96,.49,8.96,17.62v26.98h12v-26.98c0-17.12,8.04-17.62,8.96-17.62h.59c.92,0,8.96,.49,8.96,17.62v26.98h12v-26.98c0-23.38-13.17-29.62-20.96-29.62Z"/>
      <path class="cls-2" d="M117.42,133.75l.54-.34c6.05-3.93,10.34-8.83,10.34-17.76,0-11.14-9.03-20.21-20.18-20.21h-17.14c-6.62,.15-11.91,5.56-11.91,12.19v44.55h13.12v-15.5h13.19l9.81,15.5h14.09l-11.87-18.43Zm-10.15-7.91h-16.49v-15.4c0-2.12,1.62-3.84,3.6-3.84h12.89c4.43,0,9.2,4.04,9.38,8.69,.21,5.47-4.41,9.41-9.38,10.55Z"/>
    </g>
  </g>
</svg>