<?xml version="1.0" encoding="UTF-8"?>
<svg id="_레이어_2" data-name="레이어 2" xmlns="http://www.w3.org/2000/svg" width="144" height="114.6" viewBox="0 0 144 114.6">
  <defs>
    <style>
      .cls-1 {
        fill: #fff;
      }

      .cls-2 {
       fill: #e02837;
      }
    </style>
  </defs>
  <g id="_레이어_13" data-name="레이어 13">
    <g>
      <path class="cls-2" d="M0,56.73C0,24.46,23.09,0,51.58,0c7.26,0,12.12,3.07,20.42,3.07s13.16-3.07,20.42-3.07c28.49,0,51.58,24.46,51.58,56.73v1.13c0,32.27-23.09,56.73-51.58,56.73-7.25,0-12.12-3.07-20.42-3.07s-13.16,3.07-20.42,3.07C23.09,114.6,0,90.14,0,57.87v-1.13Z"/>
      <path class="cls-1" d="M59.72,47.55h-4.32v-12.63c0-3.73-2.67-6.77-5.95-6.77h-3.36c-3.28,0-5.95,3.04-5.95,6.77v12.63h-4.32v-12.63c0-6.11,4.61-11.09,10.28-11.09h3.36c5.67,0,10.28,4.97,10.28,11.09v12.63Z"/>
      <path class="cls-1" d="M86.63,47.55h-4.32v-12.63c0-3.73-2.67-6.77-5.96-6.77h-3.36c-3.28,0-5.96,3.04-5.96,6.77v12.63h-4.32v-12.63c0-6.11,4.61-11.09,10.28-11.09h3.36c5.67,0,10.28,4.97,10.28,11.09v12.63Z"/>
      <path class="cls-1" d="M101.31,28.06c4.23,0,7.67,3.44,7.67,7.67s-3.44,7.67-7.67,7.67-7.67-3.44-7.67-7.67,3.44-7.67,7.67-7.67m0-4.43c-6.68,0-12.1,5.42-12.1,12.1s5.42,12.1,12.1,12.1,12.1-5.42,12.1-12.1-5.42-12.1-12.1-12.1h0Z"/>
      <rect class="cls-1" x="27.19" y="23.92" width="4.7" height="23.63"/>
      <g>
        <path class="cls-1" d="M30.66,92.03c-9.66,0-17.53-7.86-17.53-17.53s7.86-17.53,17.53-17.53c5.61,0,10.92,2.72,14.21,7.27l-5.84,4.22c-1.94-2.68-5.07-4.29-8.37-4.29-5.69,0-10.32,4.63-10.32,10.32s4.63,10.32,10.32,10.32c3.18,0,6.13-1.43,8.1-3.93l5.65,4.46c-3.35,4.24-8.36,6.67-13.76,6.67Z"/>
        <path class="cls-1" d="M111.48,57.38h-.35c-2.63,0-6.29,1.19-8.98,4.73-2.69-3.54-6.35-4.73-8.98-4.73h-.35c-4.67,0-12.58,3.75-12.58,17.78v16.2h7.2v-16.2c0-10.28,4.83-10.58,5.38-10.58h.35c.55,0,5.38,.3,5.38,10.58v16.2h7.2v-16.2c0-10.28,4.83-10.58,5.38-10.58h.35c.55,0,5.38,.3,5.38,10.58v16.2h7.2v-16.2c0-14.04-7.91-17.78-12.58-17.78Z"/>
        <path class="cls-1" d="M70.49,80.3l.32-.2c3.63-2.36,6.21-5.3,6.21-10.66,0-6.69-5.42-12.13-12.11-12.13h-10.29c-3.98,.09-7.15,3.34-7.15,7.32v26.74h7.88v-9.3h7.92l5.89,9.3h8.46l-7.13-11.06Zm-6.09-4.75h-9.9v-9.25c0-1.27,.97-2.3,2.16-2.3h7.74c2.66,0,5.53,2.42,5.63,5.22,.13,3.28-2.65,5.65-5.63,6.34Z"/>
      </g>
    </g>
  </g>
</svg>