<?xml version="1.0"?>
<svg xmlns="http://www.w3.org/2000/svg" viewBox="0 0 32 32">
    <path style="text-indent:0;text-align:start;line-height:normal;text-transform:none;block-progression:tb;-inkscape-font-specification:Bitstream Vera Sans" d="M 26 4 C 24.895431 4 24 4.8954305 24 6 C 24 6.3104403 24.061276 6.6128351 24.1875 6.875 L 22.09375 10 C 22.062435 9.9985435 22.031675 10 22 10 C 21.325832 10 20.737312 10.332656 20.375 10.84375 L 11.8125 10.125 C 11.48961 9.4543628 10.794129 9 10 9 C 8.8954305 9 8 9.8954305 8 11 C 8 12.104569 8.8954305 13 10 13 C 10.241624 13 10.473074 12.953512 10.6875 12.875 L 19.96875 20.75 L 12.8125 20.15625 C 12.49467 19.472357 11.803803 19 11 19 C 9.8954305 19 9 19.895431 9 21 C 9 21.172589 9.0213958 21.340241 9.0625 21.5 L 6.5 24.0625 C 6.3402409 24.021396 6.172589 24 6 24 C 4.8954305 24 4 24.895431 4 26 C 4 27.104569 4.8954305 28 6 28 C 7.1045695 28 8 27.104569 8 26 C 8 25.827411 7.9786042 25.659759 7.9375 25.5 L 10.5 22.9375 C 10.659759 22.978604 10.827411 23 11 23 C 11.690356 23 12.296835 22.657003 12.65625 22.125 L 21.1875 22.84375 C 21.50533 23.527643 22.196197 24 23 24 C 24.104569 24 25 23.104569 25 22 C 25 20.895431 24.104569 20 23 20 C 22.758376 20 22.526926 20.046488 22.3125 20.125 L 13.03125 12.25 L 20.1875 12.84375 C 20.50533 13.527643 21.196197 14 22 14 C 23.104569 14 24 13.104569 24 12 C 24 11.68956 23.938724 11.387165 23.8125 11.125 L 25.90625 8 C 25.937565 8.0014565 25.968325 8 26 8 C 27.104569 8 28 7.1045695 28 6 C 28 4.8954305 27.104569 4 26 4 z" overflow="visible" font-family="Bitstream Vera Sans"/>
</svg>
